<mxfile host="app.diagrams.net" modified="2023-03-22T22:43:59.267Z" agent="5.0 (Windows NT 10.0; Win64; x64) AppleWebKit/537.36 (KHTML, like Gecko) Chrome/111.0.0.0 Safari/537.36 Edg/111.0.1661.44" etag="Q2I02Wiqa1-KZh-mQqyA" version="21.0.8" type="github">
  <diagram name="Página-1" id="xdYdcQSCoWwvoel0Nd2l">
    <mxGraphModel dx="5027" dy="3069" grid="1" gridSize="10" guides="1" tooltips="1" connect="1" arrows="1" fold="1" page="1" pageScale="1" pageWidth="827" pageHeight="1169" math="0" shadow="0">
      <root>
        <mxCell id="0" />
        <mxCell id="1" parent="0" />
        <mxCell id="r3uCzZ4wlj_pP67cUyfZ-1" value="Compra&lt;span style=&quot;white-space: pre;&quot;&gt;	&lt;/span&gt;" style="swimlane;fontStyle=1;align=center;verticalAlign=top;childLayout=stackLayout;horizontal=1;startSize=30;horizontalStack=0;resizeParent=1;resizeParentMax=0;resizeLast=0;collapsible=1;marginBottom=0;whiteSpace=wrap;html=1;" vertex="1" parent="1">
          <mxGeometry x="-1396" y="2730" width="160" height="150" as="geometry" />
        </mxCell>
        <mxCell id="r3uCzZ4wlj_pP67cUyfZ-2" value="- cpf: String" style="text;strokeColor=none;fillColor=none;align=left;verticalAlign=top;spacingLeft=4;spacingRight=4;overflow=hidden;rotatable=0;points=[[0,0.5],[1,0.5]];portConstraint=eastwest;whiteSpace=wrap;html=1;" vertex="1" parent="r3uCzZ4wlj_pP67cUyfZ-1">
          <mxGeometry y="30" width="160" height="26" as="geometry" />
        </mxCell>
        <mxCell id="r3uCzZ4wlj_pP67cUyfZ-5" value="- data: Date" style="text;strokeColor=none;fillColor=none;align=left;verticalAlign=top;spacingLeft=4;spacingRight=4;overflow=hidden;rotatable=0;points=[[0,0.5],[1,0.5]];portConstraint=eastwest;whiteSpace=wrap;html=1;" vertex="1" parent="r3uCzZ4wlj_pP67cUyfZ-1">
          <mxGeometry y="56" width="160" height="26" as="geometry" />
        </mxCell>
        <mxCell id="r3uCzZ4wlj_pP67cUyfZ-3" value="" style="line;strokeWidth=1;fillColor=none;align=left;verticalAlign=middle;spacingTop=-1;spacingLeft=3;spacingRight=3;rotatable=0;labelPosition=right;points=[];portConstraint=eastwest;strokeColor=inherit;" vertex="1" parent="r3uCzZ4wlj_pP67cUyfZ-1">
          <mxGeometry y="82" width="160" height="8" as="geometry" />
        </mxCell>
        <mxCell id="r3uCzZ4wlj_pP67cUyfZ-4" value="&lt;font color=&quot;#ff3333&quot;&gt;+ calculaTotal(): float&lt;/font&gt;" style="text;strokeColor=none;fillColor=none;align=left;verticalAlign=top;spacingLeft=4;spacingRight=4;overflow=hidden;rotatable=0;points=[[0,0.5],[1,0.5]];portConstraint=eastwest;whiteSpace=wrap;html=1;" vertex="1" parent="r3uCzZ4wlj_pP67cUyfZ-1">
          <mxGeometry y="90" width="160" height="26" as="geometry" />
        </mxCell>
        <mxCell id="r3uCzZ4wlj_pP67cUyfZ-20" value="&lt;font color=&quot;#ff3333&quot;&gt;+ calcImpostoTotal(): float&lt;/font&gt;" style="text;strokeColor=none;fillColor=none;align=left;verticalAlign=top;spacingLeft=4;spacingRight=4;overflow=hidden;rotatable=0;points=[[0,0.5],[1,0.5]];portConstraint=eastwest;whiteSpace=wrap;html=1;" vertex="1" parent="r3uCzZ4wlj_pP67cUyfZ-1">
          <mxGeometry y="116" width="160" height="34" as="geometry" />
        </mxCell>
        <mxCell id="r3uCzZ4wlj_pP67cUyfZ-6" value="ItemComprado" style="swimlane;fontStyle=1;align=center;verticalAlign=top;childLayout=stackLayout;horizontal=1;startSize=30;horizontalStack=0;resizeParent=1;resizeParentMax=0;resizeLast=0;collapsible=1;marginBottom=0;whiteSpace=wrap;html=1;" vertex="1" parent="1">
          <mxGeometry x="-1396" y="2960" width="160" height="216" as="geometry" />
        </mxCell>
        <mxCell id="r3uCzZ4wlj_pP67cUyfZ-7" value="- quantidade: float" style="text;strokeColor=none;fillColor=none;align=left;verticalAlign=top;spacingLeft=4;spacingRight=4;overflow=hidden;rotatable=0;points=[[0,0.5],[1,0.5]];portConstraint=eastwest;whiteSpace=wrap;html=1;" vertex="1" parent="r3uCzZ4wlj_pP67cUyfZ-6">
          <mxGeometry y="30" width="160" height="30" as="geometry" />
        </mxCell>
        <mxCell id="r3uCzZ4wlj_pP67cUyfZ-114" value="- desconto: float" style="text;strokeColor=none;fillColor=none;align=left;verticalAlign=top;spacingLeft=4;spacingRight=4;overflow=hidden;rotatable=0;points=[[0,0.5],[1,0.5]];portConstraint=eastwest;whiteSpace=wrap;html=1;" vertex="1" parent="r3uCzZ4wlj_pP67cUyfZ-6">
          <mxGeometry y="60" width="160" height="30" as="geometry" />
        </mxCell>
        <mxCell id="r3uCzZ4wlj_pP67cUyfZ-9" value="" style="line;strokeWidth=1;fillColor=none;align=left;verticalAlign=middle;spacingTop=-1;spacingLeft=3;spacingRight=3;rotatable=0;labelPosition=right;points=[];portConstraint=eastwest;strokeColor=inherit;" vertex="1" parent="r3uCzZ4wlj_pP67cUyfZ-6">
          <mxGeometry y="90" width="160" height="8" as="geometry" />
        </mxCell>
        <mxCell id="r3uCzZ4wlj_pP67cUyfZ-10" value="&lt;font color=&quot;#ff0000&quot;&gt;+ calculaSubTotal(): float&lt;/font&gt;" style="text;strokeColor=none;fillColor=none;align=left;verticalAlign=top;spacingLeft=4;spacingRight=4;overflow=hidden;rotatable=0;points=[[0,0.5],[1,0.5]];portConstraint=eastwest;whiteSpace=wrap;html=1;" vertex="1" parent="r3uCzZ4wlj_pP67cUyfZ-6">
          <mxGeometry y="98" width="160" height="26" as="geometry" />
        </mxCell>
        <mxCell id="r3uCzZ4wlj_pP67cUyfZ-109" value="&lt;font color=&quot;#ff0000&quot;&gt;+ calculaImpostoItem(): float&lt;/font&gt;" style="text;strokeColor=none;fillColor=none;align=left;verticalAlign=top;spacingLeft=4;spacingRight=4;overflow=hidden;rotatable=0;points=[[0,0.5],[1,0.5]];portConstraint=eastwest;whiteSpace=wrap;html=1;" vertex="1" parent="r3uCzZ4wlj_pP67cUyfZ-6">
          <mxGeometry y="124" width="160" height="46" as="geometry" />
        </mxCell>
        <mxCell id="r3uCzZ4wlj_pP67cUyfZ-113" value="&lt;font color=&quot;#ff0000&quot;&gt;+ clienteTemCadastro(): boolean&lt;/font&gt;" style="text;strokeColor=none;fillColor=none;align=left;verticalAlign=top;spacingLeft=4;spacingRight=4;overflow=hidden;rotatable=0;points=[[0,0.5],[1,0.5]];portConstraint=eastwest;whiteSpace=wrap;html=1;" vertex="1" parent="r3uCzZ4wlj_pP67cUyfZ-6">
          <mxGeometry y="170" width="160" height="46" as="geometry" />
        </mxCell>
        <mxCell id="r3uCzZ4wlj_pP67cUyfZ-11" value="Produto" style="swimlane;fontStyle=1;align=center;verticalAlign=top;childLayout=stackLayout;horizontal=1;startSize=30;horizontalStack=0;resizeParent=1;resizeParentMax=0;resizeLast=0;collapsible=1;marginBottom=0;whiteSpace=wrap;html=1;" vertex="1" parent="1">
          <mxGeometry x="-1396" y="3238" width="160" height="132" as="geometry" />
        </mxCell>
        <mxCell id="r3uCzZ4wlj_pP67cUyfZ-12" value="- id: int" style="text;strokeColor=none;fillColor=none;align=left;verticalAlign=top;spacingLeft=4;spacingRight=4;overflow=hidden;rotatable=0;points=[[0,0.5],[1,0.5]];portConstraint=eastwest;whiteSpace=wrap;html=1;" vertex="1" parent="r3uCzZ4wlj_pP67cUyfZ-11">
          <mxGeometry y="30" width="160" height="20" as="geometry" />
        </mxCell>
        <mxCell id="r3uCzZ4wlj_pP67cUyfZ-15" value="- preçoUnitário: float" style="text;strokeColor=none;fillColor=none;align=left;verticalAlign=top;spacingLeft=4;spacingRight=4;overflow=hidden;rotatable=0;points=[[0,0.5],[1,0.5]];portConstraint=eastwest;whiteSpace=wrap;html=1;" vertex="1" parent="r3uCzZ4wlj_pP67cUyfZ-11">
          <mxGeometry y="50" width="160" height="20" as="geometry" />
        </mxCell>
        <mxCell id="r3uCzZ4wlj_pP67cUyfZ-16" value="- descrição: String" style="text;strokeColor=none;fillColor=none;align=left;verticalAlign=top;spacingLeft=4;spacingRight=4;overflow=hidden;rotatable=0;points=[[0,0.5],[1,0.5]];portConstraint=eastwest;whiteSpace=wrap;html=1;" vertex="1" parent="r3uCzZ4wlj_pP67cUyfZ-11">
          <mxGeometry y="70" width="160" height="20" as="geometry" />
        </mxCell>
        <mxCell id="r3uCzZ4wlj_pP67cUyfZ-13" value="" style="line;strokeWidth=1;fillColor=none;align=left;verticalAlign=middle;spacingTop=-1;spacingLeft=3;spacingRight=3;rotatable=0;labelPosition=right;points=[];portConstraint=eastwest;strokeColor=inherit;" vertex="1" parent="r3uCzZ4wlj_pP67cUyfZ-11">
          <mxGeometry y="90" width="160" height="8" as="geometry" />
        </mxCell>
        <mxCell id="r3uCzZ4wlj_pP67cUyfZ-90" value="" style="line;strokeWidth=1;fillColor=none;align=left;verticalAlign=middle;spacingTop=-1;spacingLeft=3;spacingRight=3;rotatable=0;labelPosition=right;points=[];portConstraint=eastwest;strokeColor=inherit;" vertex="1" parent="r3uCzZ4wlj_pP67cUyfZ-11">
          <mxGeometry y="98" width="160" height="8" as="geometry" />
        </mxCell>
        <mxCell id="r3uCzZ4wlj_pP67cUyfZ-14" value="&lt;font color=&quot;#ff3333&quot;&gt;+ getPreçoUnitário() : float&lt;/font&gt;" style="text;strokeColor=none;fillColor=none;align=left;verticalAlign=top;spacingLeft=4;spacingRight=4;overflow=hidden;rotatable=0;points=[[0,0.5],[1,0.5]];portConstraint=eastwest;whiteSpace=wrap;html=1;" vertex="1" parent="r3uCzZ4wlj_pP67cUyfZ-11">
          <mxGeometry y="106" width="160" height="26" as="geometry" />
        </mxCell>
        <mxCell id="r3uCzZ4wlj_pP67cUyfZ-17" value="" style="endArrow=diamondThin;endFill=1;endSize=24;html=1;rounded=0;entryX=0.5;entryY=1;entryDx=0;entryDy=0;exitX=0.5;exitY=0;exitDx=0;exitDy=0;" edge="1" parent="1" source="r3uCzZ4wlj_pP67cUyfZ-6" target="r3uCzZ4wlj_pP67cUyfZ-1">
          <mxGeometry width="160" relative="1" as="geometry">
            <mxPoint x="-1350" y="2950" as="sourcePoint" />
            <mxPoint x="-1190" y="2950" as="targetPoint" />
          </mxGeometry>
        </mxCell>
        <mxCell id="r3uCzZ4wlj_pP67cUyfZ-18" value="1..*" style="text;html=1;align=center;verticalAlign=middle;resizable=0;points=[];autosize=1;strokeColor=none;fillColor=none;" vertex="1" parent="1">
          <mxGeometry x="-1310" y="2922" width="40" height="30" as="geometry" />
        </mxCell>
        <mxCell id="r3uCzZ4wlj_pP67cUyfZ-19" value="" style="endArrow=diamondThin;endFill=0;endSize=24;html=1;rounded=0;exitX=0.5;exitY=0;exitDx=0;exitDy=0;" edge="1" parent="1" source="r3uCzZ4wlj_pP67cUyfZ-11" target="r3uCzZ4wlj_pP67cUyfZ-113">
          <mxGeometry width="160" relative="1" as="geometry">
            <mxPoint x="-1320" y="3130" as="sourcePoint" />
            <mxPoint x="-1317.44" y="3155.9539999999997" as="targetPoint" />
          </mxGeometry>
        </mxCell>
        <mxCell id="r3uCzZ4wlj_pP67cUyfZ-22" value="taxa" style="swimlane;fontStyle=1;align=center;verticalAlign=top;childLayout=stackLayout;horizontal=1;startSize=20;horizontalStack=0;resizeParent=1;resizeParentMax=0;resizeLast=0;collapsible=1;marginBottom=0;whiteSpace=wrap;html=1;" vertex="1" parent="1">
          <mxGeometry x="-1090" y="3426" width="160" height="48" as="geometry" />
        </mxCell>
        <mxCell id="r3uCzZ4wlj_pP67cUyfZ-23" value="- percentual: float" style="text;strokeColor=none;fillColor=none;align=left;verticalAlign=top;spacingLeft=4;spacingRight=4;overflow=hidden;rotatable=0;points=[[0,0.5],[1,0.5]];portConstraint=eastwest;whiteSpace=wrap;html=1;" vertex="1" parent="r3uCzZ4wlj_pP67cUyfZ-22">
          <mxGeometry y="20" width="160" height="20" as="geometry" />
        </mxCell>
        <mxCell id="r3uCzZ4wlj_pP67cUyfZ-26" value="" style="line;strokeWidth=1;fillColor=none;align=left;verticalAlign=middle;spacingTop=-1;spacingLeft=3;spacingRight=3;rotatable=0;labelPosition=right;points=[];portConstraint=eastwest;strokeColor=inherit;" vertex="1" parent="r3uCzZ4wlj_pP67cUyfZ-22">
          <mxGeometry y="40" width="160" height="8" as="geometry" />
        </mxCell>
        <mxCell id="r3uCzZ4wlj_pP67cUyfZ-29" value="1" style="text;html=1;align=center;verticalAlign=middle;resizable=0;points=[];autosize=1;strokeColor=none;fillColor=none;" vertex="1" parent="1">
          <mxGeometry x="-1236" y="3270" width="30" height="30" as="geometry" />
        </mxCell>
        <mxCell id="r3uCzZ4wlj_pP67cUyfZ-30" value="&lt;i&gt;&amp;lt;&amp;lt;abstract&amp;gt;&amp;gt;&lt;br&gt;Pagamento&lt;/i&gt;" style="swimlane;fontStyle=1;align=center;verticalAlign=top;childLayout=stackLayout;horizontal=1;startSize=40;horizontalStack=0;resizeParent=1;resizeParentMax=0;resizeLast=0;collapsible=1;marginBottom=0;whiteSpace=wrap;html=1;" vertex="1" parent="1">
          <mxGeometry x="-1080" y="2742" width="160" height="102" as="geometry" />
        </mxCell>
        <mxCell id="r3uCzZ4wlj_pP67cUyfZ-31" value="- valor: float" style="text;strokeColor=none;fillColor=none;align=left;verticalAlign=top;spacingLeft=4;spacingRight=4;overflow=hidden;rotatable=0;points=[[0,0.5],[1,0.5]];portConstraint=eastwest;whiteSpace=wrap;html=1;" vertex="1" parent="r3uCzZ4wlj_pP67cUyfZ-30">
          <mxGeometry y="40" width="160" height="20" as="geometry" />
        </mxCell>
        <mxCell id="r3uCzZ4wlj_pP67cUyfZ-34" value="" style="line;strokeWidth=1;fillColor=none;align=left;verticalAlign=middle;spacingTop=-1;spacingLeft=3;spacingRight=3;rotatable=0;labelPosition=right;points=[];portConstraint=eastwest;strokeColor=inherit;" vertex="1" parent="r3uCzZ4wlj_pP67cUyfZ-30">
          <mxGeometry y="60" width="160" height="8" as="geometry" />
        </mxCell>
        <mxCell id="r3uCzZ4wlj_pP67cUyfZ-63" value="&lt;font color=&quot;#ff3333&quot;&gt;+ Registra(): float&lt;/font&gt;" style="text;strokeColor=none;fillColor=none;align=left;verticalAlign=top;spacingLeft=4;spacingRight=4;overflow=hidden;rotatable=0;points=[[0,0.5],[1,0.5]];portConstraint=eastwest;whiteSpace=wrap;html=1;" vertex="1" parent="r3uCzZ4wlj_pP67cUyfZ-30">
          <mxGeometry y="68" width="160" height="34" as="geometry" />
        </mxCell>
        <mxCell id="r3uCzZ4wlj_pP67cUyfZ-37" value="" style="endArrow=diamondThin;endFill=0;endSize=24;html=1;rounded=0;entryX=0.988;entryY=-0.07;entryDx=0;entryDy=0;entryPerimeter=0;startArrow=open;startFill=0;" edge="1" parent="1" source="r3uCzZ4wlj_pP67cUyfZ-31">
          <mxGeometry width="160" relative="1" as="geometry">
            <mxPoint x="-1101" y="2790" as="sourcePoint" />
            <mxPoint x="-1236" y="2790" as="targetPoint" />
          </mxGeometry>
        </mxCell>
        <mxCell id="r3uCzZ4wlj_pP67cUyfZ-38" value="1" style="text;html=1;align=center;verticalAlign=middle;resizable=0;points=[];autosize=1;strokeColor=none;fillColor=none;" vertex="1" parent="1">
          <mxGeometry x="-1236" y="2750" width="30" height="30" as="geometry" />
        </mxCell>
        <mxCell id="r3uCzZ4wlj_pP67cUyfZ-39" value="1..*" style="text;html=1;align=center;verticalAlign=middle;resizable=0;points=[];autosize=1;strokeColor=none;fillColor=none;" vertex="1" parent="1">
          <mxGeometry x="-1115" y="2760" width="40" height="30" as="geometry" />
        </mxCell>
        <mxCell id="r3uCzZ4wlj_pP67cUyfZ-41" value="Estoque" style="swimlane;fontStyle=1;align=center;verticalAlign=top;childLayout=stackLayout;horizontal=1;startSize=30;horizontalStack=0;resizeParent=1;resizeParentMax=0;resizeLast=0;collapsible=1;marginBottom=0;whiteSpace=wrap;html=1;" vertex="1" parent="1">
          <mxGeometry x="-1396" y="3460" width="160" height="38" as="geometry" />
        </mxCell>
        <mxCell id="r3uCzZ4wlj_pP67cUyfZ-43" value="" style="line;strokeWidth=1;fillColor=none;align=left;verticalAlign=middle;spacingTop=-1;spacingLeft=3;spacingRight=3;rotatable=0;labelPosition=right;points=[];portConstraint=eastwest;strokeColor=inherit;" vertex="1" parent="r3uCzZ4wlj_pP67cUyfZ-41">
          <mxGeometry y="30" width="160" height="8" as="geometry" />
        </mxCell>
        <mxCell id="r3uCzZ4wlj_pP67cUyfZ-44" value="" style="endArrow=diamondThin;endFill=1;endSize=24;html=1;rounded=0;exitX=0.481;exitY=1.052;exitDx=0;exitDy=0;exitPerimeter=0;startArrow=open;startFill=0;" edge="1" parent="1" source="r3uCzZ4wlj_pP67cUyfZ-14" target="r3uCzZ4wlj_pP67cUyfZ-41">
          <mxGeometry width="160" relative="1" as="geometry">
            <mxPoint x="-1350" y="3380" as="sourcePoint" />
            <mxPoint x="-1190" y="3380" as="targetPoint" />
          </mxGeometry>
        </mxCell>
        <mxCell id="r3uCzZ4wlj_pP67cUyfZ-45" value="*" style="text;html=1;align=center;verticalAlign=middle;resizable=0;points=[];autosize=1;strokeColor=none;fillColor=none;" vertex="1" parent="1">
          <mxGeometry x="-1315" y="3325" width="30" height="30" as="geometry" />
        </mxCell>
        <mxCell id="r3uCzZ4wlj_pP67cUyfZ-46" value="Dinheiro" style="swimlane;fontStyle=1;align=center;verticalAlign=top;childLayout=stackLayout;horizontal=1;startSize=30;horizontalStack=0;resizeParent=1;resizeParentMax=0;resizeLast=0;collapsible=1;marginBottom=0;whiteSpace=wrap;html=1;" vertex="1" parent="1">
          <mxGeometry x="-1170" y="2570" width="160" height="72" as="geometry" />
        </mxCell>
        <mxCell id="r3uCzZ4wlj_pP67cUyfZ-49" value="" style="line;strokeWidth=1;fillColor=none;align=left;verticalAlign=middle;spacingTop=-1;spacingLeft=3;spacingRight=3;rotatable=0;labelPosition=right;points=[];portConstraint=eastwest;strokeColor=inherit;" vertex="1" parent="r3uCzZ4wlj_pP67cUyfZ-46">
          <mxGeometry y="30" width="160" height="8" as="geometry" />
        </mxCell>
        <mxCell id="r3uCzZ4wlj_pP67cUyfZ-51" value="&lt;font color=&quot;#ff3333&quot;&gt;+ calculaTroco(): float&lt;/font&gt;" style="text;strokeColor=none;fillColor=none;align=left;verticalAlign=top;spacingLeft=4;spacingRight=4;overflow=hidden;rotatable=0;points=[[0,0.5],[1,0.5]];portConstraint=eastwest;whiteSpace=wrap;html=1;" vertex="1" parent="r3uCzZ4wlj_pP67cUyfZ-46">
          <mxGeometry y="38" width="160" height="34" as="geometry" />
        </mxCell>
        <mxCell id="r3uCzZ4wlj_pP67cUyfZ-52" value="Pix" style="swimlane;fontStyle=1;align=center;verticalAlign=top;childLayout=stackLayout;horizontal=1;startSize=30;horizontalStack=0;resizeParent=1;resizeParentMax=0;resizeLast=0;collapsible=1;marginBottom=0;whiteSpace=wrap;html=1;" vertex="1" parent="1">
          <mxGeometry x="-990" y="2570" width="160" height="90" as="geometry" />
        </mxCell>
        <mxCell id="r3uCzZ4wlj_pP67cUyfZ-53" value="- valor: float" style="text;strokeColor=none;fillColor=none;align=left;verticalAlign=top;spacingLeft=4;spacingRight=4;overflow=hidden;rotatable=0;points=[[0,0.5],[1,0.5]];portConstraint=eastwest;whiteSpace=wrap;html=1;" vertex="1" parent="r3uCzZ4wlj_pP67cUyfZ-52">
          <mxGeometry y="30" width="160" height="26" as="geometry" />
        </mxCell>
        <mxCell id="r3uCzZ4wlj_pP67cUyfZ-54" value="- chave: String" style="text;strokeColor=none;fillColor=none;align=left;verticalAlign=top;spacingLeft=4;spacingRight=4;overflow=hidden;rotatable=0;points=[[0,0.5],[1,0.5]];portConstraint=eastwest;whiteSpace=wrap;html=1;" vertex="1" parent="r3uCzZ4wlj_pP67cUyfZ-52">
          <mxGeometry y="56" width="160" height="26" as="geometry" />
        </mxCell>
        <mxCell id="r3uCzZ4wlj_pP67cUyfZ-55" value="" style="line;strokeWidth=1;fillColor=none;align=left;verticalAlign=middle;spacingTop=-1;spacingLeft=3;spacingRight=3;rotatable=0;labelPosition=right;points=[];portConstraint=eastwest;strokeColor=inherit;" vertex="1" parent="r3uCzZ4wlj_pP67cUyfZ-52">
          <mxGeometry y="82" width="160" height="8" as="geometry" />
        </mxCell>
        <mxCell id="r3uCzZ4wlj_pP67cUyfZ-57" value="CartãoDeCrédito" style="swimlane;fontStyle=1;align=center;verticalAlign=top;childLayout=stackLayout;horizontal=1;startSize=30;horizontalStack=0;resizeParent=1;resizeParentMax=0;resizeLast=0;collapsible=1;marginBottom=0;whiteSpace=wrap;html=1;" vertex="1" parent="1">
          <mxGeometry x="-983" y="2952" width="160" height="90" as="geometry" />
        </mxCell>
        <mxCell id="r3uCzZ4wlj_pP67cUyfZ-58" value="- valor: float" style="text;strokeColor=none;fillColor=none;align=left;verticalAlign=top;spacingLeft=4;spacingRight=4;overflow=hidden;rotatable=0;points=[[0,0.5],[1,0.5]];portConstraint=eastwest;whiteSpace=wrap;html=1;" vertex="1" parent="r3uCzZ4wlj_pP67cUyfZ-57">
          <mxGeometry y="30" width="160" height="26" as="geometry" />
        </mxCell>
        <mxCell id="r3uCzZ4wlj_pP67cUyfZ-59" value="- cartao: Cartao" style="text;strokeColor=none;fillColor=none;align=left;verticalAlign=top;spacingLeft=4;spacingRight=4;overflow=hidden;rotatable=0;points=[[0,0.5],[1,0.5]];portConstraint=eastwest;whiteSpace=wrap;html=1;" vertex="1" parent="r3uCzZ4wlj_pP67cUyfZ-57">
          <mxGeometry y="56" width="160" height="26" as="geometry" />
        </mxCell>
        <mxCell id="r3uCzZ4wlj_pP67cUyfZ-60" value="" style="line;strokeWidth=1;fillColor=none;align=left;verticalAlign=middle;spacingTop=-1;spacingLeft=3;spacingRight=3;rotatable=0;labelPosition=right;points=[];portConstraint=eastwest;strokeColor=inherit;" vertex="1" parent="r3uCzZ4wlj_pP67cUyfZ-57">
          <mxGeometry y="82" width="160" height="8" as="geometry" />
        </mxCell>
        <mxCell id="r3uCzZ4wlj_pP67cUyfZ-71" value="CartãoDeDébito" style="swimlane;fontStyle=1;align=center;verticalAlign=top;childLayout=stackLayout;horizontal=1;startSize=30;horizontalStack=0;resizeParent=1;resizeParentMax=0;resizeLast=0;collapsible=1;marginBottom=0;whiteSpace=wrap;html=1;" vertex="1" parent="1">
          <mxGeometry x="-1170" y="2941" width="160" height="90" as="geometry" />
        </mxCell>
        <mxCell id="r3uCzZ4wlj_pP67cUyfZ-72" value="- valor: float" style="text;strokeColor=none;fillColor=none;align=left;verticalAlign=top;spacingLeft=4;spacingRight=4;overflow=hidden;rotatable=0;points=[[0,0.5],[1,0.5]];portConstraint=eastwest;whiteSpace=wrap;html=1;" vertex="1" parent="r3uCzZ4wlj_pP67cUyfZ-71">
          <mxGeometry y="30" width="160" height="26" as="geometry" />
        </mxCell>
        <mxCell id="r3uCzZ4wlj_pP67cUyfZ-73" value="- cartao: Cartao" style="text;strokeColor=none;fillColor=none;align=left;verticalAlign=top;spacingLeft=4;spacingRight=4;overflow=hidden;rotatable=0;points=[[0,0.5],[1,0.5]];portConstraint=eastwest;whiteSpace=wrap;html=1;" vertex="1" parent="r3uCzZ4wlj_pP67cUyfZ-71">
          <mxGeometry y="56" width="160" height="26" as="geometry" />
        </mxCell>
        <mxCell id="r3uCzZ4wlj_pP67cUyfZ-74" value="" style="line;strokeWidth=1;fillColor=none;align=left;verticalAlign=middle;spacingTop=-1;spacingLeft=3;spacingRight=3;rotatable=0;labelPosition=right;points=[];portConstraint=eastwest;strokeColor=inherit;" vertex="1" parent="r3uCzZ4wlj_pP67cUyfZ-71">
          <mxGeometry y="82" width="160" height="8" as="geometry" />
        </mxCell>
        <mxCell id="r3uCzZ4wlj_pP67cUyfZ-75" value="ConteinerDeCompras" style="swimlane;fontStyle=1;align=center;verticalAlign=top;childLayout=stackLayout;horizontal=1;startSize=30;horizontalStack=0;resizeParent=1;resizeParentMax=0;resizeLast=0;collapsible=1;marginBottom=0;whiteSpace=wrap;html=1;" vertex="1" parent="1">
          <mxGeometry x="-1640" y="2767" width="160" height="64" as="geometry" />
        </mxCell>
        <mxCell id="r3uCzZ4wlj_pP67cUyfZ-78" value="" style="line;strokeWidth=1;fillColor=none;align=left;verticalAlign=middle;spacingTop=-1;spacingLeft=3;spacingRight=3;rotatable=0;labelPosition=right;points=[];portConstraint=eastwest;strokeColor=inherit;" vertex="1" parent="r3uCzZ4wlj_pP67cUyfZ-75">
          <mxGeometry y="30" width="160" height="8" as="geometry" />
        </mxCell>
        <mxCell id="r3uCzZ4wlj_pP67cUyfZ-97" value="&lt;font color=&quot;#ff3333&quot;&gt;+ informaCompras(): String&lt;/font&gt;" style="text;strokeColor=none;fillColor=none;align=left;verticalAlign=top;spacingLeft=4;spacingRight=4;overflow=hidden;rotatable=0;points=[[0,0.5],[1,0.5]];portConstraint=eastwest;whiteSpace=wrap;html=1;" vertex="1" parent="r3uCzZ4wlj_pP67cUyfZ-75">
          <mxGeometry y="38" width="160" height="26" as="geometry" />
        </mxCell>
        <mxCell id="r3uCzZ4wlj_pP67cUyfZ-81" value="" style="endArrow=diamondThin;endFill=1;endSize=24;html=1;rounded=0;entryX=1;entryY=0.5;entryDx=0;entryDy=0;" edge="1" parent="1" source="r3uCzZ4wlj_pP67cUyfZ-5" target="r3uCzZ4wlj_pP67cUyfZ-75">
          <mxGeometry width="160" relative="1" as="geometry">
            <mxPoint x="-1400" y="2800" as="sourcePoint" />
            <mxPoint x="-1280" y="2860" as="targetPoint" />
          </mxGeometry>
        </mxCell>
        <mxCell id="r3uCzZ4wlj_pP67cUyfZ-82" value="GerenciadorDeTaxa" style="swimlane;fontStyle=1;align=center;verticalAlign=top;childLayout=stackLayout;horizontal=1;startSize=20;horizontalStack=0;resizeParent=1;resizeParentMax=0;resizeLast=0;collapsible=1;marginBottom=0;whiteSpace=wrap;html=1;" vertex="1" parent="1">
          <mxGeometry x="-1090" y="3274" width="160" height="48" as="geometry" />
        </mxCell>
        <mxCell id="r3uCzZ4wlj_pP67cUyfZ-84" value="" style="line;strokeWidth=1;fillColor=none;align=left;verticalAlign=middle;spacingTop=-1;spacingLeft=3;spacingRight=3;rotatable=0;labelPosition=right;points=[];portConstraint=eastwest;strokeColor=inherit;" vertex="1" parent="r3uCzZ4wlj_pP67cUyfZ-82">
          <mxGeometry y="20" width="160" height="8" as="geometry" />
        </mxCell>
        <mxCell id="r3uCzZ4wlj_pP67cUyfZ-83" value="+ defineTaxa(): taxa" style="text;strokeColor=none;fillColor=none;align=left;verticalAlign=top;spacingLeft=4;spacingRight=4;overflow=hidden;rotatable=0;points=[[0,0.5],[1,0.5]];portConstraint=eastwest;whiteSpace=wrap;html=1;fontColor=#FF0000;" vertex="1" parent="r3uCzZ4wlj_pP67cUyfZ-82">
          <mxGeometry y="28" width="160" height="20" as="geometry" />
        </mxCell>
        <mxCell id="r3uCzZ4wlj_pP67cUyfZ-89" value="" style="endArrow=diamondThin;endFill=1;endSize=24;html=1;rounded=0;exitX=0.5;exitY=0;exitDx=0;exitDy=0;" edge="1" parent="1" source="r3uCzZ4wlj_pP67cUyfZ-22" target="r3uCzZ4wlj_pP67cUyfZ-83">
          <mxGeometry width="160" relative="1" as="geometry">
            <mxPoint x="-1200" y="3418" as="sourcePoint" />
            <mxPoint x="-1040" y="3418" as="targetPoint" />
          </mxGeometry>
        </mxCell>
        <mxCell id="r3uCzZ4wlj_pP67cUyfZ-91" style="edgeStyle=orthogonalEdgeStyle;rounded=0;orthogonalLoop=1;jettySize=auto;html=1;exitX=1;exitY=0.5;exitDx=0;exitDy=0;entryX=0;entryY=0.479;entryDx=0;entryDy=0;entryPerimeter=0;" edge="1" parent="1" source="r3uCzZ4wlj_pP67cUyfZ-15" target="r3uCzZ4wlj_pP67cUyfZ-84">
          <mxGeometry relative="1" as="geometry" />
        </mxCell>
        <mxCell id="r3uCzZ4wlj_pP67cUyfZ-92" value="Extends" style="endArrow=block;endSize=16;endFill=0;html=1;rounded=0;" edge="1" parent="1" source="r3uCzZ4wlj_pP67cUyfZ-51">
          <mxGeometry width="160" relative="1" as="geometry">
            <mxPoint x="-1099" y="2646" as="sourcePoint" />
            <mxPoint x="-1020" y="2740" as="targetPoint" />
          </mxGeometry>
        </mxCell>
        <mxCell id="r3uCzZ4wlj_pP67cUyfZ-93" value="Extends" style="endArrow=block;endSize=16;endFill=0;html=1;rounded=0;" edge="1" parent="1">
          <mxGeometry width="160" relative="1" as="geometry">
            <mxPoint x="-880" y="2660" as="sourcePoint" />
            <mxPoint x="-970" y="2740" as="targetPoint" />
          </mxGeometry>
        </mxCell>
        <mxCell id="r3uCzZ4wlj_pP67cUyfZ-94" value="Extends" style="endArrow=block;endSize=16;endFill=0;html=1;rounded=0;exitX=0.5;exitY=0;exitDx=0;exitDy=0;entryX=0.68;entryY=0.998;entryDx=0;entryDy=0;entryPerimeter=0;" edge="1" parent="1" source="r3uCzZ4wlj_pP67cUyfZ-57" target="r3uCzZ4wlj_pP67cUyfZ-63">
          <mxGeometry width="160" relative="1" as="geometry">
            <mxPoint x="-1150" y="2890" as="sourcePoint" />
            <mxPoint x="-990" y="2890" as="targetPoint" />
          </mxGeometry>
        </mxCell>
        <mxCell id="r3uCzZ4wlj_pP67cUyfZ-96" value="Extends" style="endArrow=block;endSize=16;endFill=0;html=1;rounded=0;exitX=0.5;exitY=0;exitDx=0;exitDy=0;" edge="1" parent="1" source="r3uCzZ4wlj_pP67cUyfZ-71" target="r3uCzZ4wlj_pP67cUyfZ-63">
          <mxGeometry width="160" relative="1" as="geometry">
            <mxPoint x="-1150" y="2820" as="sourcePoint" />
            <mxPoint x="-1081" y="2850" as="targetPoint" />
          </mxGeometry>
        </mxCell>
        <mxCell id="r3uCzZ4wlj_pP67cUyfZ-140" style="edgeStyle=orthogonalEdgeStyle;rounded=0;orthogonalLoop=1;jettySize=auto;html=1;entryX=0.5;entryY=0;entryDx=0;entryDy=0;" edge="1" parent="1" source="r3uCzZ4wlj_pP67cUyfZ-104" target="r3uCzZ4wlj_pP67cUyfZ-136">
          <mxGeometry relative="1" as="geometry" />
        </mxCell>
        <mxCell id="r3uCzZ4wlj_pP67cUyfZ-104" value="Cadastro" style="swimlane;fontStyle=1;align=center;verticalAlign=top;childLayout=stackLayout;horizontal=1;startSize=30;horizontalStack=0;resizeParent=1;resizeParentMax=0;resizeLast=0;collapsible=1;marginBottom=0;whiteSpace=wrap;html=1;" vertex="1" parent="1">
          <mxGeometry x="-1635" y="3019" width="160" height="104" as="geometry" />
        </mxCell>
        <mxCell id="r3uCzZ4wlj_pP67cUyfZ-102" value="&lt;font color=&quot;#000000&quot;&gt;- Cliente: cliente&lt;/font&gt;" style="text;strokeColor=none;fillColor=none;align=left;verticalAlign=top;spacingLeft=4;spacingRight=4;overflow=hidden;rotatable=0;points=[[0,0.5],[1,0.5]];portConstraint=eastwest;whiteSpace=wrap;html=1;fontColor=#FF0000;" vertex="1" parent="r3uCzZ4wlj_pP67cUyfZ-104">
          <mxGeometry y="30" width="160" height="20" as="geometry" />
        </mxCell>
        <mxCell id="r3uCzZ4wlj_pP67cUyfZ-106" value="" style="line;strokeWidth=1;fillColor=none;align=left;verticalAlign=middle;spacingTop=-1;spacingLeft=3;spacingRight=3;rotatable=0;labelPosition=right;points=[];portConstraint=eastwest;strokeColor=inherit;" vertex="1" parent="r3uCzZ4wlj_pP67cUyfZ-104">
          <mxGeometry y="50" width="160" height="8" as="geometry" />
        </mxCell>
        <mxCell id="r3uCzZ4wlj_pP67cUyfZ-108" value="&lt;font color=&quot;#ff0000&quot;&gt;+ buscaCliente(): boolean&lt;/font&gt;" style="text;strokeColor=none;fillColor=none;align=left;verticalAlign=top;spacingLeft=4;spacingRight=4;overflow=hidden;rotatable=0;points=[[0,0.5],[1,0.5]];portConstraint=eastwest;whiteSpace=wrap;html=1;" vertex="1" parent="r3uCzZ4wlj_pP67cUyfZ-104">
          <mxGeometry y="58" width="160" height="46" as="geometry" />
        </mxCell>
        <mxCell id="r3uCzZ4wlj_pP67cUyfZ-111" style="edgeStyle=orthogonalEdgeStyle;rounded=0;orthogonalLoop=1;jettySize=auto;html=1;entryX=1;entryY=0.5;entryDx=0;entryDy=0;exitX=0;exitY=0.5;exitDx=0;exitDy=0;" edge="1" parent="1" source="r3uCzZ4wlj_pP67cUyfZ-10" target="r3uCzZ4wlj_pP67cUyfZ-104">
          <mxGeometry relative="1" as="geometry" />
        </mxCell>
        <mxCell id="r3uCzZ4wlj_pP67cUyfZ-136" value="Cliente" style="swimlane;fontStyle=1;align=center;verticalAlign=top;childLayout=stackLayout;horizontal=1;startSize=30;horizontalStack=0;resizeParent=1;resizeParentMax=0;resizeLast=0;collapsible=1;marginBottom=0;whiteSpace=wrap;html=1;" vertex="1" parent="1">
          <mxGeometry x="-1635" y="3210" width="160" height="78" as="geometry" />
        </mxCell>
        <mxCell id="r3uCzZ4wlj_pP67cUyfZ-137" value="&lt;font color=&quot;#000000&quot;&gt;- nome: String&lt;/font&gt;" style="text;strokeColor=none;fillColor=none;align=left;verticalAlign=top;spacingLeft=4;spacingRight=4;overflow=hidden;rotatable=0;points=[[0,0.5],[1,0.5]];portConstraint=eastwest;whiteSpace=wrap;html=1;fontColor=#FF0000;" vertex="1" parent="r3uCzZ4wlj_pP67cUyfZ-136">
          <mxGeometry y="30" width="160" height="20" as="geometry" />
        </mxCell>
        <mxCell id="r3uCzZ4wlj_pP67cUyfZ-138" value="&lt;font color=&quot;#000000&quot;&gt;- cpf: String&lt;/font&gt;" style="text;strokeColor=none;fillColor=none;align=left;verticalAlign=top;spacingLeft=4;spacingRight=4;overflow=hidden;rotatable=0;points=[[0,0.5],[1,0.5]];portConstraint=eastwest;whiteSpace=wrap;html=1;fontColor=#FF0000;" vertex="1" parent="r3uCzZ4wlj_pP67cUyfZ-136">
          <mxGeometry y="50" width="160" height="20" as="geometry" />
        </mxCell>
        <mxCell id="r3uCzZ4wlj_pP67cUyfZ-139" value="" style="line;strokeWidth=1;fillColor=none;align=left;verticalAlign=middle;spacingTop=-1;spacingLeft=3;spacingRight=3;rotatable=0;labelPosition=right;points=[];portConstraint=eastwest;strokeColor=inherit;" vertex="1" parent="r3uCzZ4wlj_pP67cUyfZ-136">
          <mxGeometry y="70" width="160" height="8" as="geometry" />
        </mxCell>
        <mxCell id="r3uCzZ4wlj_pP67cUyfZ-141" value="Compra&lt;span style=&quot;white-space: pre;&quot;&gt;	&lt;/span&gt;" style="swimlane;fontStyle=1;align=center;verticalAlign=top;childLayout=stackLayout;horizontal=1;startSize=30;horizontalStack=0;resizeParent=1;resizeParentMax=0;resizeLast=0;collapsible=1;marginBottom=0;whiteSpace=wrap;html=1;" vertex="1" parent="1">
          <mxGeometry x="1314" y="-910" width="160" height="150" as="geometry" />
        </mxCell>
        <mxCell id="r3uCzZ4wlj_pP67cUyfZ-142" value="- cpf: String" style="text;strokeColor=none;fillColor=none;align=left;verticalAlign=top;spacingLeft=4;spacingRight=4;overflow=hidden;rotatable=0;points=[[0,0.5],[1,0.5]];portConstraint=eastwest;whiteSpace=wrap;html=1;" vertex="1" parent="r3uCzZ4wlj_pP67cUyfZ-141">
          <mxGeometry y="30" width="160" height="26" as="geometry" />
        </mxCell>
        <mxCell id="r3uCzZ4wlj_pP67cUyfZ-143" value="- data: Date" style="text;strokeColor=none;fillColor=none;align=left;verticalAlign=top;spacingLeft=4;spacingRight=4;overflow=hidden;rotatable=0;points=[[0,0.5],[1,0.5]];portConstraint=eastwest;whiteSpace=wrap;html=1;" vertex="1" parent="r3uCzZ4wlj_pP67cUyfZ-141">
          <mxGeometry y="56" width="160" height="26" as="geometry" />
        </mxCell>
        <mxCell id="r3uCzZ4wlj_pP67cUyfZ-144" value="" style="line;strokeWidth=1;fillColor=none;align=left;verticalAlign=middle;spacingTop=-1;spacingLeft=3;spacingRight=3;rotatable=0;labelPosition=right;points=[];portConstraint=eastwest;strokeColor=inherit;" vertex="1" parent="r3uCzZ4wlj_pP67cUyfZ-141">
          <mxGeometry y="82" width="160" height="8" as="geometry" />
        </mxCell>
        <mxCell id="r3uCzZ4wlj_pP67cUyfZ-145" value="&lt;font color=&quot;#ff3333&quot;&gt;+ calculaTotal(): float&lt;/font&gt;" style="text;strokeColor=none;fillColor=none;align=left;verticalAlign=top;spacingLeft=4;spacingRight=4;overflow=hidden;rotatable=0;points=[[0,0.5],[1,0.5]];portConstraint=eastwest;whiteSpace=wrap;html=1;" vertex="1" parent="r3uCzZ4wlj_pP67cUyfZ-141">
          <mxGeometry y="90" width="160" height="26" as="geometry" />
        </mxCell>
        <mxCell id="r3uCzZ4wlj_pP67cUyfZ-146" value="&lt;font color=&quot;#ff3333&quot;&gt;+ calcImpostoTotal(): float&lt;/font&gt;" style="text;strokeColor=none;fillColor=none;align=left;verticalAlign=top;spacingLeft=4;spacingRight=4;overflow=hidden;rotatable=0;points=[[0,0.5],[1,0.5]];portConstraint=eastwest;whiteSpace=wrap;html=1;" vertex="1" parent="r3uCzZ4wlj_pP67cUyfZ-141">
          <mxGeometry y="116" width="160" height="34" as="geometry" />
        </mxCell>
        <mxCell id="r3uCzZ4wlj_pP67cUyfZ-147" value="ItemComprado" style="swimlane;fontStyle=1;align=center;verticalAlign=top;childLayout=stackLayout;horizontal=1;startSize=30;horizontalStack=0;resizeParent=1;resizeParentMax=0;resizeLast=0;collapsible=1;marginBottom=0;whiteSpace=wrap;html=1;" vertex="1" parent="1">
          <mxGeometry x="1314" y="-680" width="160" height="216" as="geometry" />
        </mxCell>
        <mxCell id="r3uCzZ4wlj_pP67cUyfZ-148" value="- quantidade: float" style="text;strokeColor=none;fillColor=none;align=left;verticalAlign=top;spacingLeft=4;spacingRight=4;overflow=hidden;rotatable=0;points=[[0,0.5],[1,0.5]];portConstraint=eastwest;whiteSpace=wrap;html=1;" vertex="1" parent="r3uCzZ4wlj_pP67cUyfZ-147">
          <mxGeometry y="30" width="160" height="30" as="geometry" />
        </mxCell>
        <mxCell id="r3uCzZ4wlj_pP67cUyfZ-149" value="- desconto: float" style="text;strokeColor=none;fillColor=none;align=left;verticalAlign=top;spacingLeft=4;spacingRight=4;overflow=hidden;rotatable=0;points=[[0,0.5],[1,0.5]];portConstraint=eastwest;whiteSpace=wrap;html=1;" vertex="1" parent="r3uCzZ4wlj_pP67cUyfZ-147">
          <mxGeometry y="60" width="160" height="30" as="geometry" />
        </mxCell>
        <mxCell id="r3uCzZ4wlj_pP67cUyfZ-150" value="" style="line;strokeWidth=1;fillColor=none;align=left;verticalAlign=middle;spacingTop=-1;spacingLeft=3;spacingRight=3;rotatable=0;labelPosition=right;points=[];portConstraint=eastwest;strokeColor=inherit;" vertex="1" parent="r3uCzZ4wlj_pP67cUyfZ-147">
          <mxGeometry y="90" width="160" height="8" as="geometry" />
        </mxCell>
        <mxCell id="r3uCzZ4wlj_pP67cUyfZ-151" value="&lt;font color=&quot;#ff0000&quot;&gt;+ calculaSubTotal(): float&lt;/font&gt;" style="text;strokeColor=none;fillColor=none;align=left;verticalAlign=top;spacingLeft=4;spacingRight=4;overflow=hidden;rotatable=0;points=[[0,0.5],[1,0.5]];portConstraint=eastwest;whiteSpace=wrap;html=1;" vertex="1" parent="r3uCzZ4wlj_pP67cUyfZ-147">
          <mxGeometry y="98" width="160" height="26" as="geometry" />
        </mxCell>
        <mxCell id="r3uCzZ4wlj_pP67cUyfZ-152" value="&lt;font color=&quot;#ff0000&quot;&gt;+ calculaImpostoItem(): float&lt;/font&gt;" style="text;strokeColor=none;fillColor=none;align=left;verticalAlign=top;spacingLeft=4;spacingRight=4;overflow=hidden;rotatable=0;points=[[0,0.5],[1,0.5]];portConstraint=eastwest;whiteSpace=wrap;html=1;" vertex="1" parent="r3uCzZ4wlj_pP67cUyfZ-147">
          <mxGeometry y="124" width="160" height="46" as="geometry" />
        </mxCell>
        <mxCell id="r3uCzZ4wlj_pP67cUyfZ-153" value="&lt;font color=&quot;#ff0000&quot;&gt;+ clienteTemCadastro(): boolean&lt;/font&gt;" style="text;strokeColor=none;fillColor=none;align=left;verticalAlign=top;spacingLeft=4;spacingRight=4;overflow=hidden;rotatable=0;points=[[0,0.5],[1,0.5]];portConstraint=eastwest;whiteSpace=wrap;html=1;" vertex="1" parent="r3uCzZ4wlj_pP67cUyfZ-147">
          <mxGeometry y="170" width="160" height="46" as="geometry" />
        </mxCell>
        <mxCell id="r3uCzZ4wlj_pP67cUyfZ-154" value="Produto" style="swimlane;fontStyle=1;align=center;verticalAlign=top;childLayout=stackLayout;horizontal=1;startSize=30;horizontalStack=0;resizeParent=1;resizeParentMax=0;resizeLast=0;collapsible=1;marginBottom=0;whiteSpace=wrap;html=1;" vertex="1" parent="1">
          <mxGeometry x="1314" y="-402" width="160" height="132" as="geometry" />
        </mxCell>
        <mxCell id="r3uCzZ4wlj_pP67cUyfZ-155" value="- id: int" style="text;strokeColor=none;fillColor=none;align=left;verticalAlign=top;spacingLeft=4;spacingRight=4;overflow=hidden;rotatable=0;points=[[0,0.5],[1,0.5]];portConstraint=eastwest;whiteSpace=wrap;html=1;" vertex="1" parent="r3uCzZ4wlj_pP67cUyfZ-154">
          <mxGeometry y="30" width="160" height="20" as="geometry" />
        </mxCell>
        <mxCell id="r3uCzZ4wlj_pP67cUyfZ-156" value="- preçoUnitário: float" style="text;strokeColor=none;fillColor=none;align=left;verticalAlign=top;spacingLeft=4;spacingRight=4;overflow=hidden;rotatable=0;points=[[0,0.5],[1,0.5]];portConstraint=eastwest;whiteSpace=wrap;html=1;" vertex="1" parent="r3uCzZ4wlj_pP67cUyfZ-154">
          <mxGeometry y="50" width="160" height="20" as="geometry" />
        </mxCell>
        <mxCell id="r3uCzZ4wlj_pP67cUyfZ-157" value="- descrição: String" style="text;strokeColor=none;fillColor=none;align=left;verticalAlign=top;spacingLeft=4;spacingRight=4;overflow=hidden;rotatable=0;points=[[0,0.5],[1,0.5]];portConstraint=eastwest;whiteSpace=wrap;html=1;" vertex="1" parent="r3uCzZ4wlj_pP67cUyfZ-154">
          <mxGeometry y="70" width="160" height="20" as="geometry" />
        </mxCell>
        <mxCell id="r3uCzZ4wlj_pP67cUyfZ-158" value="" style="line;strokeWidth=1;fillColor=none;align=left;verticalAlign=middle;spacingTop=-1;spacingLeft=3;spacingRight=3;rotatable=0;labelPosition=right;points=[];portConstraint=eastwest;strokeColor=inherit;" vertex="1" parent="r3uCzZ4wlj_pP67cUyfZ-154">
          <mxGeometry y="90" width="160" height="8" as="geometry" />
        </mxCell>
        <mxCell id="r3uCzZ4wlj_pP67cUyfZ-159" value="" style="line;strokeWidth=1;fillColor=none;align=left;verticalAlign=middle;spacingTop=-1;spacingLeft=3;spacingRight=3;rotatable=0;labelPosition=right;points=[];portConstraint=eastwest;strokeColor=inherit;" vertex="1" parent="r3uCzZ4wlj_pP67cUyfZ-154">
          <mxGeometry y="98" width="160" height="8" as="geometry" />
        </mxCell>
        <mxCell id="r3uCzZ4wlj_pP67cUyfZ-160" value="&lt;font color=&quot;#ff3333&quot;&gt;+ getPreçoUnitário() : float&lt;/font&gt;" style="text;strokeColor=none;fillColor=none;align=left;verticalAlign=top;spacingLeft=4;spacingRight=4;overflow=hidden;rotatable=0;points=[[0,0.5],[1,0.5]];portConstraint=eastwest;whiteSpace=wrap;html=1;" vertex="1" parent="r3uCzZ4wlj_pP67cUyfZ-154">
          <mxGeometry y="106" width="160" height="26" as="geometry" />
        </mxCell>
        <mxCell id="r3uCzZ4wlj_pP67cUyfZ-161" value="" style="endArrow=diamondThin;endFill=1;endSize=24;html=1;rounded=0;entryX=0.5;entryY=1;entryDx=0;entryDy=0;exitX=0.5;exitY=0;exitDx=0;exitDy=0;" edge="1" parent="1" source="r3uCzZ4wlj_pP67cUyfZ-147" target="r3uCzZ4wlj_pP67cUyfZ-141">
          <mxGeometry width="160" relative="1" as="geometry">
            <mxPoint x="1360" y="-690" as="sourcePoint" />
            <mxPoint x="1520" y="-690" as="targetPoint" />
          </mxGeometry>
        </mxCell>
        <mxCell id="r3uCzZ4wlj_pP67cUyfZ-162" value="1..*" style="text;html=1;align=center;verticalAlign=middle;resizable=0;points=[];autosize=1;strokeColor=none;fillColor=none;" vertex="1" parent="1">
          <mxGeometry x="1400" y="-718" width="40" height="30" as="geometry" />
        </mxCell>
        <mxCell id="r3uCzZ4wlj_pP67cUyfZ-163" value="" style="endArrow=diamondThin;endFill=0;endSize=24;html=1;rounded=0;exitX=0.5;exitY=0;exitDx=0;exitDy=0;" edge="1" parent="1" source="r3uCzZ4wlj_pP67cUyfZ-154" target="r3uCzZ4wlj_pP67cUyfZ-153">
          <mxGeometry width="160" relative="1" as="geometry">
            <mxPoint x="1390" y="-510" as="sourcePoint" />
            <mxPoint x="1392.56" y="-484.04600000000005" as="targetPoint" />
          </mxGeometry>
        </mxCell>
        <mxCell id="r3uCzZ4wlj_pP67cUyfZ-164" value="taxa" style="swimlane;fontStyle=1;align=center;verticalAlign=top;childLayout=stackLayout;horizontal=1;startSize=20;horizontalStack=0;resizeParent=1;resizeParentMax=0;resizeLast=0;collapsible=1;marginBottom=0;whiteSpace=wrap;html=1;" vertex="1" parent="1">
          <mxGeometry x="1620" y="-214" width="160" height="48" as="geometry" />
        </mxCell>
        <mxCell id="r3uCzZ4wlj_pP67cUyfZ-165" value="- percentual: float" style="text;strokeColor=none;fillColor=none;align=left;verticalAlign=top;spacingLeft=4;spacingRight=4;overflow=hidden;rotatable=0;points=[[0,0.5],[1,0.5]];portConstraint=eastwest;whiteSpace=wrap;html=1;" vertex="1" parent="r3uCzZ4wlj_pP67cUyfZ-164">
          <mxGeometry y="20" width="160" height="20" as="geometry" />
        </mxCell>
        <mxCell id="r3uCzZ4wlj_pP67cUyfZ-166" value="" style="line;strokeWidth=1;fillColor=none;align=left;verticalAlign=middle;spacingTop=-1;spacingLeft=3;spacingRight=3;rotatable=0;labelPosition=right;points=[];portConstraint=eastwest;strokeColor=inherit;" vertex="1" parent="r3uCzZ4wlj_pP67cUyfZ-164">
          <mxGeometry y="40" width="160" height="8" as="geometry" />
        </mxCell>
        <mxCell id="r3uCzZ4wlj_pP67cUyfZ-167" value="1" style="text;html=1;align=center;verticalAlign=middle;resizable=0;points=[];autosize=1;strokeColor=none;fillColor=none;" vertex="1" parent="1">
          <mxGeometry x="1474" y="-370" width="30" height="30" as="geometry" />
        </mxCell>
        <mxCell id="r3uCzZ4wlj_pP67cUyfZ-168" value="&lt;i&gt;&amp;lt;&amp;lt;abstract&amp;gt;&amp;gt;&lt;br&gt;Pagamento&lt;/i&gt;" style="swimlane;fontStyle=1;align=center;verticalAlign=top;childLayout=stackLayout;horizontal=1;startSize=40;horizontalStack=0;resizeParent=1;resizeParentMax=0;resizeLast=0;collapsible=1;marginBottom=0;whiteSpace=wrap;html=1;" vertex="1" parent="1">
          <mxGeometry x="1630" y="-898" width="160" height="102" as="geometry" />
        </mxCell>
        <mxCell id="r3uCzZ4wlj_pP67cUyfZ-169" value="- valor: float" style="text;strokeColor=none;fillColor=none;align=left;verticalAlign=top;spacingLeft=4;spacingRight=4;overflow=hidden;rotatable=0;points=[[0,0.5],[1,0.5]];portConstraint=eastwest;whiteSpace=wrap;html=1;" vertex="1" parent="r3uCzZ4wlj_pP67cUyfZ-168">
          <mxGeometry y="40" width="160" height="20" as="geometry" />
        </mxCell>
        <mxCell id="r3uCzZ4wlj_pP67cUyfZ-170" value="" style="line;strokeWidth=1;fillColor=none;align=left;verticalAlign=middle;spacingTop=-1;spacingLeft=3;spacingRight=3;rotatable=0;labelPosition=right;points=[];portConstraint=eastwest;strokeColor=inherit;" vertex="1" parent="r3uCzZ4wlj_pP67cUyfZ-168">
          <mxGeometry y="60" width="160" height="8" as="geometry" />
        </mxCell>
        <mxCell id="r3uCzZ4wlj_pP67cUyfZ-171" value="&lt;font color=&quot;#ff3333&quot;&gt;+ Registra(): float&lt;/font&gt;" style="text;strokeColor=none;fillColor=none;align=left;verticalAlign=top;spacingLeft=4;spacingRight=4;overflow=hidden;rotatable=0;points=[[0,0.5],[1,0.5]];portConstraint=eastwest;whiteSpace=wrap;html=1;" vertex="1" parent="r3uCzZ4wlj_pP67cUyfZ-168">
          <mxGeometry y="68" width="160" height="34" as="geometry" />
        </mxCell>
        <mxCell id="r3uCzZ4wlj_pP67cUyfZ-172" value="" style="endArrow=diamondThin;endFill=0;endSize=24;html=1;rounded=0;entryX=0.988;entryY=-0.07;entryDx=0;entryDy=0;entryPerimeter=0;startArrow=open;startFill=0;" edge="1" parent="1" source="r3uCzZ4wlj_pP67cUyfZ-169">
          <mxGeometry width="160" relative="1" as="geometry">
            <mxPoint x="1609" y="-850" as="sourcePoint" />
            <mxPoint x="1474" y="-850" as="targetPoint" />
          </mxGeometry>
        </mxCell>
        <mxCell id="r3uCzZ4wlj_pP67cUyfZ-173" value="1" style="text;html=1;align=center;verticalAlign=middle;resizable=0;points=[];autosize=1;strokeColor=none;fillColor=none;" vertex="1" parent="1">
          <mxGeometry x="1474" y="-890" width="30" height="30" as="geometry" />
        </mxCell>
        <mxCell id="r3uCzZ4wlj_pP67cUyfZ-174" value="1..*" style="text;html=1;align=center;verticalAlign=middle;resizable=0;points=[];autosize=1;strokeColor=none;fillColor=none;" vertex="1" parent="1">
          <mxGeometry x="1595" y="-880" width="40" height="30" as="geometry" />
        </mxCell>
        <mxCell id="r3uCzZ4wlj_pP67cUyfZ-175" value="Estoque" style="swimlane;fontStyle=1;align=center;verticalAlign=top;childLayout=stackLayout;horizontal=1;startSize=30;horizontalStack=0;resizeParent=1;resizeParentMax=0;resizeLast=0;collapsible=1;marginBottom=0;whiteSpace=wrap;html=1;" vertex="1" parent="1">
          <mxGeometry x="1314" y="-180" width="160" height="38" as="geometry" />
        </mxCell>
        <mxCell id="r3uCzZ4wlj_pP67cUyfZ-176" value="" style="line;strokeWidth=1;fillColor=none;align=left;verticalAlign=middle;spacingTop=-1;spacingLeft=3;spacingRight=3;rotatable=0;labelPosition=right;points=[];portConstraint=eastwest;strokeColor=inherit;" vertex="1" parent="r3uCzZ4wlj_pP67cUyfZ-175">
          <mxGeometry y="30" width="160" height="8" as="geometry" />
        </mxCell>
        <mxCell id="r3uCzZ4wlj_pP67cUyfZ-177" value="" style="endArrow=diamondThin;endFill=1;endSize=24;html=1;rounded=0;exitX=0.481;exitY=1.052;exitDx=0;exitDy=0;exitPerimeter=0;startArrow=open;startFill=0;" edge="1" parent="1" source="r3uCzZ4wlj_pP67cUyfZ-160" target="r3uCzZ4wlj_pP67cUyfZ-175">
          <mxGeometry width="160" relative="1" as="geometry">
            <mxPoint x="1360" y="-260" as="sourcePoint" />
            <mxPoint x="1520" y="-260" as="targetPoint" />
          </mxGeometry>
        </mxCell>
        <mxCell id="r3uCzZ4wlj_pP67cUyfZ-178" value="*" style="text;html=1;align=center;verticalAlign=middle;resizable=0;points=[];autosize=1;strokeColor=none;fillColor=none;" vertex="1" parent="1">
          <mxGeometry x="1395" y="-315" width="30" height="30" as="geometry" />
        </mxCell>
        <mxCell id="r3uCzZ4wlj_pP67cUyfZ-194" value="ConteinerDeCompras" style="swimlane;fontStyle=1;align=center;verticalAlign=top;childLayout=stackLayout;horizontal=1;startSize=30;horizontalStack=0;resizeParent=1;resizeParentMax=0;resizeLast=0;collapsible=1;marginBottom=0;whiteSpace=wrap;html=1;" vertex="1" parent="1">
          <mxGeometry x="1304" y="-1070" width="160" height="64" as="geometry" />
        </mxCell>
        <mxCell id="r3uCzZ4wlj_pP67cUyfZ-195" value="" style="line;strokeWidth=1;fillColor=none;align=left;verticalAlign=middle;spacingTop=-1;spacingLeft=3;spacingRight=3;rotatable=0;labelPosition=right;points=[];portConstraint=eastwest;strokeColor=inherit;" vertex="1" parent="r3uCzZ4wlj_pP67cUyfZ-194">
          <mxGeometry y="30" width="160" height="8" as="geometry" />
        </mxCell>
        <mxCell id="r3uCzZ4wlj_pP67cUyfZ-196" value="&lt;font color=&quot;#ff3333&quot;&gt;+ informaCompras(): String&lt;/font&gt;" style="text;strokeColor=none;fillColor=none;align=left;verticalAlign=top;spacingLeft=4;spacingRight=4;overflow=hidden;rotatable=0;points=[[0,0.5],[1,0.5]];portConstraint=eastwest;whiteSpace=wrap;html=1;" vertex="1" parent="r3uCzZ4wlj_pP67cUyfZ-194">
          <mxGeometry y="38" width="160" height="26" as="geometry" />
        </mxCell>
        <mxCell id="r3uCzZ4wlj_pP67cUyfZ-197" value="" style="endArrow=diamondThin;endFill=1;endSize=24;html=1;rounded=0;entryX=0.558;entryY=1.027;entryDx=0;entryDy=0;entryPerimeter=0;exitX=0.5;exitY=0;exitDx=0;exitDy=0;" edge="1" parent="1" source="r3uCzZ4wlj_pP67cUyfZ-141" target="r3uCzZ4wlj_pP67cUyfZ-196">
          <mxGeometry width="160" relative="1" as="geometry">
            <mxPoint x="1390" y="-920" as="sourcePoint" />
            <mxPoint x="1430" y="-780" as="targetPoint" />
            <Array as="points" />
          </mxGeometry>
        </mxCell>
        <mxCell id="r3uCzZ4wlj_pP67cUyfZ-198" value="GerenciadorDeTaxa" style="swimlane;fontStyle=1;align=center;verticalAlign=top;childLayout=stackLayout;horizontal=1;startSize=20;horizontalStack=0;resizeParent=1;resizeParentMax=0;resizeLast=0;collapsible=1;marginBottom=0;whiteSpace=wrap;html=1;" vertex="1" parent="1">
          <mxGeometry x="1620" y="-366" width="160" height="48" as="geometry" />
        </mxCell>
        <mxCell id="r3uCzZ4wlj_pP67cUyfZ-199" value="" style="line;strokeWidth=1;fillColor=none;align=left;verticalAlign=middle;spacingTop=-1;spacingLeft=3;spacingRight=3;rotatable=0;labelPosition=right;points=[];portConstraint=eastwest;strokeColor=inherit;" vertex="1" parent="r3uCzZ4wlj_pP67cUyfZ-198">
          <mxGeometry y="20" width="160" height="8" as="geometry" />
        </mxCell>
        <mxCell id="r3uCzZ4wlj_pP67cUyfZ-200" value="+ defineTaxa(): taxa" style="text;strokeColor=none;fillColor=none;align=left;verticalAlign=top;spacingLeft=4;spacingRight=4;overflow=hidden;rotatable=0;points=[[0,0.5],[1,0.5]];portConstraint=eastwest;whiteSpace=wrap;html=1;fontColor=#FF0000;" vertex="1" parent="r3uCzZ4wlj_pP67cUyfZ-198">
          <mxGeometry y="28" width="160" height="20" as="geometry" />
        </mxCell>
        <mxCell id="r3uCzZ4wlj_pP67cUyfZ-201" value="" style="endArrow=diamondThin;endFill=1;endSize=24;html=1;rounded=0;exitX=0.5;exitY=0;exitDx=0;exitDy=0;" edge="1" parent="1" source="r3uCzZ4wlj_pP67cUyfZ-164" target="r3uCzZ4wlj_pP67cUyfZ-200">
          <mxGeometry width="160" relative="1" as="geometry">
            <mxPoint x="1510" y="-222" as="sourcePoint" />
            <mxPoint x="1670" y="-222" as="targetPoint" />
          </mxGeometry>
        </mxCell>
        <mxCell id="r3uCzZ4wlj_pP67cUyfZ-202" style="edgeStyle=orthogonalEdgeStyle;rounded=0;orthogonalLoop=1;jettySize=auto;html=1;exitX=1;exitY=0.5;exitDx=0;exitDy=0;entryX=0;entryY=0.479;entryDx=0;entryDy=0;entryPerimeter=0;" edge="1" parent="1" source="r3uCzZ4wlj_pP67cUyfZ-156" target="r3uCzZ4wlj_pP67cUyfZ-199">
          <mxGeometry relative="1" as="geometry" />
        </mxCell>
        <mxCell id="r3uCzZ4wlj_pP67cUyfZ-208" value="Cadastro" style="swimlane;fontStyle=1;align=center;verticalAlign=top;childLayout=stackLayout;horizontal=1;startSize=30;horizontalStack=0;resizeParent=1;resizeParentMax=0;resizeLast=0;collapsible=1;marginBottom=0;whiteSpace=wrap;html=1;" vertex="1" parent="1">
          <mxGeometry x="1075" y="-621" width="160" height="104" as="geometry" />
        </mxCell>
        <mxCell id="r3uCzZ4wlj_pP67cUyfZ-209" value="&lt;font color=&quot;#000000&quot;&gt;- Cliente: cliente&lt;/font&gt;" style="text;strokeColor=none;fillColor=none;align=left;verticalAlign=top;spacingLeft=4;spacingRight=4;overflow=hidden;rotatable=0;points=[[0,0.5],[1,0.5]];portConstraint=eastwest;whiteSpace=wrap;html=1;fontColor=#FF0000;" vertex="1" parent="r3uCzZ4wlj_pP67cUyfZ-208">
          <mxGeometry y="30" width="160" height="20" as="geometry" />
        </mxCell>
        <mxCell id="r3uCzZ4wlj_pP67cUyfZ-210" value="" style="line;strokeWidth=1;fillColor=none;align=left;verticalAlign=middle;spacingTop=-1;spacingLeft=3;spacingRight=3;rotatable=0;labelPosition=right;points=[];portConstraint=eastwest;strokeColor=inherit;" vertex="1" parent="r3uCzZ4wlj_pP67cUyfZ-208">
          <mxGeometry y="50" width="160" height="8" as="geometry" />
        </mxCell>
        <mxCell id="r3uCzZ4wlj_pP67cUyfZ-211" value="&lt;font color=&quot;#ff0000&quot;&gt;+ buscaCliente(): boolean&lt;/font&gt;" style="text;strokeColor=none;fillColor=none;align=left;verticalAlign=top;spacingLeft=4;spacingRight=4;overflow=hidden;rotatable=0;points=[[0,0.5],[1,0.5]];portConstraint=eastwest;whiteSpace=wrap;html=1;" vertex="1" parent="r3uCzZ4wlj_pP67cUyfZ-208">
          <mxGeometry y="58" width="160" height="46" as="geometry" />
        </mxCell>
        <mxCell id="r3uCzZ4wlj_pP67cUyfZ-212" style="edgeStyle=orthogonalEdgeStyle;rounded=0;orthogonalLoop=1;jettySize=auto;html=1;entryX=1;entryY=0.5;entryDx=0;entryDy=0;exitX=0;exitY=0.5;exitDx=0;exitDy=0;" edge="1" parent="1" source="r3uCzZ4wlj_pP67cUyfZ-151" target="r3uCzZ4wlj_pP67cUyfZ-208">
          <mxGeometry relative="1" as="geometry" />
        </mxCell>
        <mxCell id="r3uCzZ4wlj_pP67cUyfZ-213" value="Cliente" style="swimlane;fontStyle=1;align=center;verticalAlign=top;childLayout=stackLayout;horizontal=1;startSize=30;horizontalStack=0;resizeParent=1;resizeParentMax=0;resizeLast=0;collapsible=1;marginBottom=0;whiteSpace=wrap;html=1;" vertex="1" parent="1">
          <mxGeometry x="827" y="-620" width="160" height="78" as="geometry" />
        </mxCell>
        <mxCell id="r3uCzZ4wlj_pP67cUyfZ-214" value="&lt;font color=&quot;#000000&quot;&gt;- nome: String&lt;/font&gt;" style="text;strokeColor=none;fillColor=none;align=left;verticalAlign=top;spacingLeft=4;spacingRight=4;overflow=hidden;rotatable=0;points=[[0,0.5],[1,0.5]];portConstraint=eastwest;whiteSpace=wrap;html=1;fontColor=#FF0000;" vertex="1" parent="r3uCzZ4wlj_pP67cUyfZ-213">
          <mxGeometry y="30" width="160" height="20" as="geometry" />
        </mxCell>
        <mxCell id="r3uCzZ4wlj_pP67cUyfZ-215" value="&lt;font color=&quot;#000000&quot;&gt;- cpf: String&lt;/font&gt;" style="text;strokeColor=none;fillColor=none;align=left;verticalAlign=top;spacingLeft=4;spacingRight=4;overflow=hidden;rotatable=0;points=[[0,0.5],[1,0.5]];portConstraint=eastwest;whiteSpace=wrap;html=1;fontColor=#FF0000;" vertex="1" parent="r3uCzZ4wlj_pP67cUyfZ-213">
          <mxGeometry y="50" width="160" height="20" as="geometry" />
        </mxCell>
        <mxCell id="r3uCzZ4wlj_pP67cUyfZ-216" value="" style="line;strokeWidth=1;fillColor=none;align=left;verticalAlign=middle;spacingTop=-1;spacingLeft=3;spacingRight=3;rotatable=0;labelPosition=right;points=[];portConstraint=eastwest;strokeColor=inherit;" vertex="1" parent="r3uCzZ4wlj_pP67cUyfZ-213">
          <mxGeometry y="70" width="160" height="8" as="geometry" />
        </mxCell>
        <mxCell id="r3uCzZ4wlj_pP67cUyfZ-218" value="Pix" style="swimlane;fontStyle=1;align=center;verticalAlign=top;childLayout=stackLayout;horizontal=1;startSize=30;horizontalStack=0;resizeParent=1;resizeParentMax=0;resizeLast=0;collapsible=1;marginBottom=0;whiteSpace=wrap;html=1;" vertex="1" parent="1">
          <mxGeometry x="1590" y="-700" width="160" height="90" as="geometry" />
        </mxCell>
        <mxCell id="r3uCzZ4wlj_pP67cUyfZ-219" value="- valor: float" style="text;strokeColor=none;fillColor=none;align=left;verticalAlign=top;spacingLeft=4;spacingRight=4;overflow=hidden;rotatable=0;points=[[0,0.5],[1,0.5]];portConstraint=eastwest;whiteSpace=wrap;html=1;" vertex="1" parent="r3uCzZ4wlj_pP67cUyfZ-218">
          <mxGeometry y="30" width="160" height="26" as="geometry" />
        </mxCell>
        <mxCell id="r3uCzZ4wlj_pP67cUyfZ-220" value="- chave: String" style="text;strokeColor=none;fillColor=none;align=left;verticalAlign=top;spacingLeft=4;spacingRight=4;overflow=hidden;rotatable=0;points=[[0,0.5],[1,0.5]];portConstraint=eastwest;whiteSpace=wrap;html=1;" vertex="1" parent="r3uCzZ4wlj_pP67cUyfZ-218">
          <mxGeometry y="56" width="160" height="26" as="geometry" />
        </mxCell>
        <mxCell id="r3uCzZ4wlj_pP67cUyfZ-221" value="" style="line;strokeWidth=1;fillColor=none;align=left;verticalAlign=middle;spacingTop=-1;spacingLeft=3;spacingRight=3;rotatable=0;labelPosition=right;points=[];portConstraint=eastwest;strokeColor=inherit;" vertex="1" parent="r3uCzZ4wlj_pP67cUyfZ-218">
          <mxGeometry y="82" width="160" height="8" as="geometry" />
        </mxCell>
        <mxCell id="r3uCzZ4wlj_pP67cUyfZ-222" value="Dinheiro" style="swimlane;fontStyle=1;align=center;verticalAlign=top;childLayout=stackLayout;horizontal=1;startSize=30;horizontalStack=0;resizeParent=1;resizeParentMax=0;resizeLast=0;collapsible=1;marginBottom=0;whiteSpace=wrap;html=1;" vertex="1" parent="1">
          <mxGeometry x="1800" y="-693" width="160" height="72" as="geometry" />
        </mxCell>
        <mxCell id="r3uCzZ4wlj_pP67cUyfZ-223" value="" style="line;strokeWidth=1;fillColor=none;align=left;verticalAlign=middle;spacingTop=-1;spacingLeft=3;spacingRight=3;rotatable=0;labelPosition=right;points=[];portConstraint=eastwest;strokeColor=inherit;" vertex="1" parent="r3uCzZ4wlj_pP67cUyfZ-222">
          <mxGeometry y="30" width="160" height="8" as="geometry" />
        </mxCell>
        <mxCell id="r3uCzZ4wlj_pP67cUyfZ-224" value="&lt;font color=&quot;#ff3333&quot;&gt;+ calculaTroco(): float&lt;/font&gt;" style="text;strokeColor=none;fillColor=none;align=left;verticalAlign=top;spacingLeft=4;spacingRight=4;overflow=hidden;rotatable=0;points=[[0,0.5],[1,0.5]];portConstraint=eastwest;whiteSpace=wrap;html=1;" vertex="1" parent="r3uCzZ4wlj_pP67cUyfZ-222">
          <mxGeometry y="38" width="160" height="34" as="geometry" />
        </mxCell>
        <mxCell id="r3uCzZ4wlj_pP67cUyfZ-225" value="Extends" style="endArrow=block;endSize=16;endFill=0;html=1;rounded=0;exitX=0.5;exitY=0;exitDx=0;exitDy=0;" edge="1" parent="1" source="r3uCzZ4wlj_pP67cUyfZ-222" target="r3uCzZ4wlj_pP67cUyfZ-171">
          <mxGeometry x="-0.0035" width="160" relative="1" as="geometry">
            <mxPoint x="1840" y="-970" as="sourcePoint" />
            <mxPoint x="1750" y="-890" as="targetPoint" />
            <mxPoint as="offset" />
          </mxGeometry>
        </mxCell>
        <mxCell id="r3uCzZ4wlj_pP67cUyfZ-226" value="Extends" style="endArrow=block;endSize=16;endFill=0;html=1;rounded=0;exitX=0.5;exitY=0;exitDx=0;exitDy=0;" edge="1" parent="1" source="r3uCzZ4wlj_pP67cUyfZ-218" target="r3uCzZ4wlj_pP67cUyfZ-171">
          <mxGeometry x="-0.0035" width="160" relative="1" as="geometry">
            <mxPoint x="1890" y="-683" as="sourcePoint" />
            <mxPoint x="1778" y="-777" as="targetPoint" />
            <mxPoint as="offset" />
          </mxGeometry>
        </mxCell>
        <mxCell id="r3uCzZ4wlj_pP67cUyfZ-227" style="edgeStyle=orthogonalEdgeStyle;rounded=0;orthogonalLoop=1;jettySize=auto;html=1;entryX=1;entryY=0.5;entryDx=0;entryDy=0;" edge="1" parent="1" source="r3uCzZ4wlj_pP67cUyfZ-209" target="r3uCzZ4wlj_pP67cUyfZ-213">
          <mxGeometry relative="1" as="geometry" />
        </mxCell>
      </root>
    </mxGraphModel>
  </diagram>
</mxfile>
